<svg width="58.000000" height="58.000000" viewBox="0 0 58 58" fill="none" xmlns="http://www.w3.org/2000/svg" xmlns:xlink="http://www.w3.org/1999/xlink">
	<desc>
			Created with Pixso.
	</desc>
	<defs/>
	<path id="Vector" d="M18.24 26.94C17.97 27.21 17.77 27.54 17.63 27.89C17.34 28.6 17.34 29.39 17.63 30.1C17.77 30.45 17.97 30.78 18.24 31.05L26.94 39.75C27.48 40.3 28.22 40.61 29 40.61C29.77 40.61 30.51 40.3 31.05 39.75C31.6 39.21 31.91 38.47 31.91 37.7C31.91 36.92 31.6 36.18 31.05 35.64L27.28 31.9L37.7 31.9C38.46 31.9 39.2 31.59 39.75 31.05C40.29 30.5 40.59 29.76 40.59 29C40.59 28.23 40.29 27.49 39.75 26.94C39.2 26.4 38.46 26.1 37.7 26.1L27.28 26.1L31.05 22.35C31.33 22.08 31.54 21.76 31.69 21.41C31.84 21.06 31.91 20.68 31.91 20.29C31.91 19.91 31.84 19.53 31.69 19.18C31.54 18.83 31.33 18.51 31.05 18.24C30.78 17.96 30.46 17.75 30.11 17.6C29.76 17.45 29.38 17.38 29 17.38C28.61 17.38 28.23 17.45 27.88 17.6C27.53 17.75 27.21 17.96 26.94 18.24L18.24 26.94ZM0 29C0 34.73 1.7 40.34 4.88 45.11C8.07 49.88 12.6 53.59 17.9 55.79C23.2 57.98 29.03 58.56 34.65 57.44C40.28 56.32 45.45 53.56 49.5 49.5C53.56 45.45 56.32 40.28 57.44 34.65C58.56 29.03 57.98 23.2 55.79 17.9C53.59 12.6 49.88 8.07 45.11 4.88C40.34 1.7 34.73 0 29 0C25.19 0 21.42 0.75 17.9 2.2C14.38 3.66 11.18 5.8 8.49 8.49C3.05 13.93 0 21.3 0 29ZM52.2 29C52.2 33.58 50.83 38.07 48.29 41.88C45.74 45.7 42.11 48.67 37.87 50.43C33.63 52.18 28.97 52.64 24.47 51.75C19.97 50.85 15.83 48.64 12.59 45.4C9.35 42.16 7.14 38.02 6.24 33.52C5.35 29.02 5.81 24.36 7.56 20.12C9.32 15.88 12.29 12.25 16.11 9.7C19.92 7.16 24.41 5.8 29 5.8C35.15 5.8 41.05 8.24 45.4 12.59C49.75 16.94 52.2 22.84 52.2 29Z" fill="#808080" fill-opacity="1.000000" fill-rule="nonzero"/>
</svg>
