<svg width="60.071411" height="60.071533" viewBox="0 0 60.0714 60.0715" fill="none" xmlns="http://www.w3.org/2000/svg" xmlns:xlink="http://www.w3.org/1999/xlink">
	<desc>
			Created with Pixso.
	</desc>
	<defs/>
	<path id="Vector" d="M41.17 32.16C41.45 31.88 41.66 31.54 41.8 31.17C42.11 30.44 42.11 29.62 41.8 28.89C41.66 28.52 41.45 28.18 41.17 27.9L32.16 18.89C31.6 18.32 30.83 18 30.03 18C29.23 18 28.46 18.32 27.9 18.89C27.33 19.45 27.01 20.22 27.01 21.02C27.01 21.82 27.33 22.59 27.9 23.15L31.8 27.03L21.02 27.03C20.22 27.03 19.46 27.34 18.9 27.91C18.33 28.47 18.02 29.23 18.02 30.03C18.02 30.83 18.33 31.59 18.9 32.15C19.46 32.72 20.22 33.03 21.02 33.03L31.8 33.03L27.9 36.91C27.62 37.19 27.39 37.52 27.24 37.89C27.09 38.25 27.01 38.65 27.01 39.04C27.01 39.44 27.09 39.83 27.24 40.2C27.39 40.56 27.62 40.89 27.9 41.17C28.18 41.46 28.51 41.68 28.88 41.83C29.24 41.98 29.63 42.06 30.03 42.06C30.43 42.06 30.82 41.98 31.19 41.83C31.55 41.68 31.88 41.46 32.16 41.17L41.17 32.16ZM60.07 30.03C60.07 24.09 58.3 18.28 55 13.34C51.7 8.4 47.01 4.55 41.52 2.28C36.04 0.01 30 -0.59 24.17 0.57C18.34 1.73 12.99 4.59 8.79 8.79C4.59 12.99 1.73 18.34 0.57 24.17C-0.59 30 0.01 36.04 2.28 41.52C4.55 47.01 8.4 51.7 13.34 55C18.28 58.3 24.09 60.07 30.03 60.07C38 60.07 45.64 56.9 51.27 51.27C56.9 45.64 60.07 38 60.07 30.03ZM6 30.03C6 25.28 7.41 20.63 10.05 16.68C12.69 12.73 16.44 9.65 20.84 7.83C25.23 6.01 30.06 5.54 34.72 6.46C39.38 7.39 43.66 9.68 47.02 13.04C50.38 16.4 52.67 20.68 53.6 25.34C54.52 30 54.05 34.84 52.23 39.23C50.41 43.62 47.33 47.37 43.38 50.01C39.43 52.65 34.78 54.06 30.03 54.06C23.66 54.06 17.55 51.53 13.04 47.02C8.53 42.52 6 36.4 6 30.03Z" fill="#9C9C9C" fill-opacity="1.000000" fill-rule="nonzero"/>
</svg>
