<svg width="25.123047" height="25.123047" viewBox="0 0 25.123 25.123" fill="none" xmlns="http://www.w3.org/2000/svg" xmlns:xlink="http://www.w3.org/1999/xlink">
	<desc>
			Created with Pixso.
	</desc>
	<defs>
		<clipPath id="clip5_513">
			<rect id="format_list_bulleted_black_24dp 1" rx="0.000000" width="23.866890" height="23.866890" transform="translate(0.628076 0.628076)" fill="white" fill-opacity="0"/>
		</clipPath>
	</defs>
	<rect id="format_list_bulleted_black_24dp 1" rx="0.000000" width="23.866890" height="23.866890" transform="translate(0.628076 0.628076)" fill="#FFFFFF" fill-opacity="0"/>
	<g clip-path="url(#clip5_513)">
		<path id="Vector" d="M4.18 10.99C3.31 10.99 2.61 11.69 2.61 12.56C2.61 13.43 3.31 14.13 4.18 14.13C5.05 14.13 5.75 13.43 5.75 12.56C5.75 11.69 5.05 10.99 4.18 10.99ZM4.18 4.71C3.31 4.71 2.61 5.41 2.61 6.28C2.61 7.15 3.31 7.85 4.18 7.85C5.05 7.85 5.75 7.15 5.75 6.28C5.75 5.41 5.05 4.71 4.18 4.71ZM4.18 17.27C3.31 17.27 2.61 17.98 2.61 18.84C2.61 19.7 3.32 20.41 4.18 20.41C5.04 20.41 5.75 19.7 5.75 18.84C5.75 17.98 5.05 17.27 4.18 17.27ZM7.32 19.88L21.98 19.88L21.98 17.79L7.32 17.79L7.32 19.88ZM7.32 13.6L21.98 13.6L21.98 11.51L7.32 11.51L7.32 13.6ZM7.32 5.23L7.32 7.32L21.98 7.32L21.98 5.23L7.32 5.23Z" fill="#808080" fill-opacity="1.000000" fill-rule="nonzero"/>
	</g>
</svg>
