<svg width="18.842285" height="18.842285" viewBox="0 0 18.8423 18.8423" fill="none" xmlns="http://www.w3.org/2000/svg" xmlns:xlink="http://www.w3.org/1999/xlink">
	<desc>
			Created with Pixso.
	</desc>
	<defs/>
	<path id="Vector" d="M0 0L0 8.37L8.37 8.37L8.37 0L0 0ZM6.28 6.28L2.09 6.28L2.09 2.09L6.28 2.09L6.28 6.28ZM0 10.46L0 18.84L8.37 18.84L8.37 10.46L0 10.46ZM6.28 16.74L2.09 16.74L2.09 12.56L6.28 12.56L6.28 16.74ZM10.46 0L10.46 8.37L18.84 8.37L18.84 0L10.46 0ZM16.74 6.28L12.56 6.28L12.56 2.09L16.74 2.09L16.74 6.28ZM10.46 10.46L10.46 18.84L18.84 18.84L18.84 10.46L10.46 10.46ZM16.74 16.74L12.56 16.74L12.56 12.56L16.74 12.56L16.74 16.74Z" fill="#040404" fill-opacity="1.000000" fill-rule="nonzero"/>
</svg>
